<svg width="24" height="24" viewBox="0 0 24 24" fill="none" xmlns="http://www.w3.org/2000/svg">
<g clip-path="url(#clip0_3_3109)">
<path d="M9.78669 9.8732C8.89507 9.8732 8.02349 9.60872 7.28223 9.11322C6.54097 8.61773 5.96334 7.91349 5.62244 7.08962C5.28154 6.26574 5.19268 5.35926 5.36711 4.48487C5.54155 3.61048 5.97143 2.80748 6.60236 2.17748C7.2333 1.54748 8.03693 1.11879 8.91158 0.945648C9.78623 0.772511 10.6926 0.86271 11.5159 1.20483C12.3393 1.54695 13.0427 2.12562 13.5371 2.86761C14.0315 3.60961 14.2947 4.48158 14.2934 5.3732C14.2898 6.56674 13.8137 7.7103 12.9691 8.55364C12.1245 9.39698 10.9802 9.87144 9.78669 9.8732ZM9.78669 2.19987C9.15907 2.19987 8.54554 2.38598 8.02368 2.73467C7.50183 3.08336 7.0951 3.57897 6.85492 4.15882C6.61473 4.73867 6.55189 5.37672 6.67433 5.99229C6.79678 6.60785 7.09901 7.17328 7.54281 7.61708C7.98661 8.06088 8.55204 8.36311 9.16761 8.48556C9.78317 8.608 10.4212 8.54516 11.0011 8.30498C11.5809 8.06479 12.0765 7.65806 12.4252 7.13621C12.7739 6.61436 12.96 6.00082 12.96 5.3732C12.96 4.53158 12.6257 3.72443 12.0306 3.12931C11.4355 2.5342 10.6283 2.19987 9.78669 2.19987Z" fill="white"/>
<path d="M10.9466 21.1199C10.8009 20.9741 10.6885 20.7985 10.6171 20.6052C10.5458 20.4118 10.5172 20.2053 10.5333 19.9999H2.66659V16.1465C3.61185 15.1379 4.75839 14.339 6.03198 13.8015C7.30557 13.2641 8.67782 13 10.0599 13.0265H10.5399C10.5093 12.803 10.5307 12.5754 10.6024 12.3615C10.6741 12.1476 10.7941 11.9531 10.9533 11.7932L11.0333 11.7199C10.7199 11.7199 10.3666 11.6799 10.0599 11.6799C8.43352 11.6412 6.81886 11.9645 5.3327 12.6263C3.84654 13.2881 2.526 14.2719 1.46659 15.5065C1.38004 15.6219 1.33325 15.7623 1.33325 15.9065V19.9999C1.33325 20.3535 1.47373 20.6926 1.72378 20.9427C1.97382 21.1927 2.31296 21.3332 2.66659 21.3332H11.1333L10.9466 21.1199Z" fill="white"/>
<path d="M17.9133 10.8601C17.9463 10.8533 17.9803 10.8533 18.0133 10.8601C17.9803 10.8541 17.9464 10.8541 17.9133 10.8601Z" fill="white"/>
<path d="M22.4534 15.5465L21.1201 15.1398C21.0248 14.8137 20.8952 14.4986 20.7334 14.1998L21.4001 12.9598C21.4218 12.9102 21.427 12.855 21.415 12.8022C21.403 12.7494 21.3744 12.7018 21.3334 12.6665L20.3668 11.6998C20.3302 11.6602 20.2814 11.6341 20.2282 11.6257C20.175 11.6172 20.1205 11.6269 20.0734 11.6532L18.8468 12.3198C18.5447 12.15 18.225 12.0137 17.8934 11.9132L17.4868 10.5798C17.4695 10.5307 17.4368 10.4886 17.3935 10.4597C17.3502 10.4309 17.2987 10.4169 17.2468 10.4198H15.8801C15.8276 10.4192 15.7763 10.4358 15.7342 10.4671C15.6921 10.4985 15.6613 10.5427 15.6468 10.5932L15.2401 11.9265C14.9062 12.0236 14.5842 12.1578 14.2801 12.3265L13.0668 11.6598C13.0207 11.6341 12.9673 11.6246 12.9153 11.6331C12.8632 11.6416 12.8156 11.6675 12.7801 11.7065L11.7934 12.6665C11.7568 12.705 11.7333 12.7541 11.7261 12.8067C11.7189 12.8593 11.7285 12.9129 11.7534 12.9598L12.4201 14.1732C12.2438 14.4737 12.1028 14.7936 12.0001 15.1265L10.6668 15.5265C10.6163 15.5411 10.5721 15.5718 10.5408 15.6139C10.5094 15.6561 10.4928 15.7073 10.4934 15.7598V17.1265C10.4974 17.1746 10.5162 17.2204 10.5472 17.2574C10.5783 17.2944 10.62 17.3209 10.6668 17.3332L12.0001 17.7398C12.0986 18.0668 12.2328 18.3821 12.4001 18.6798L11.7334 19.9532C11.708 19.9988 11.6981 20.0515 11.7053 20.1032C11.7126 20.1549 11.7365 20.2029 11.7734 20.2398L12.7401 21.2065C12.7778 21.2441 12.8265 21.2689 12.8792 21.2773C12.9319 21.2857 12.9858 21.2772 13.0334 21.2532L14.2801 20.5865C14.5768 20.746 14.8897 20.8734 15.2134 20.9665L15.6134 22.2998C15.6298 22.3492 15.661 22.3923 15.7028 22.4233C15.7445 22.4543 15.7948 22.4717 15.8468 22.4732H17.2134C17.2657 22.4727 17.3164 22.4557 17.3583 22.4245C17.4003 22.3934 17.4312 22.3497 17.4468 22.2998L17.8534 20.9332C18.1729 20.84 18.4814 20.7126 18.7734 20.5532L20.0334 21.2198C20.0797 21.2444 20.1328 21.2532 20.1846 21.2448C20.2364 21.2363 20.284 21.2112 20.3201 21.1732L21.3334 20.2665C21.3607 20.2274 21.3753 20.1808 21.3753 20.1332C21.3753 20.0855 21.3607 20.0389 21.3334 19.9998L20.6668 18.7465C20.8286 18.4524 20.9582 18.1417 21.0534 17.8198L22.3868 17.4132C22.4372 17.3986 22.4815 17.3679 22.5128 17.3257C22.5441 17.2836 22.5607 17.2323 22.5601 17.1798V15.7798C22.5662 15.7348 22.5594 15.689 22.5406 15.6477C22.5217 15.6064 22.4915 15.5713 22.4534 15.5465ZM16.5668 18.6665C16.1258 18.6678 15.6944 18.5382 15.3272 18.294C14.96 18.0498 14.6736 17.7022 14.5042 17.295C14.3348 16.8879 14.2902 16.4396 14.3759 16.0071C14.4616 15.5745 14.6738 15.1771 14.9856 14.8653C15.2974 14.5535 15.6948 14.3413 16.1273 14.2556C16.5599 14.1699 17.0081 14.2146 17.4153 14.3839C17.8224 14.5533 18.1701 14.8397 18.4143 15.2069C18.6584 15.5741 18.7881 16.0055 18.7868 16.4465C18.785 17.0347 18.5505 17.5984 18.1346 18.0143C17.7186 18.4303 17.155 18.6647 16.5668 18.6665Z" fill="white"/>
</g>
<defs>
<clipPath id="clip0_3_3109">
<rect width="24" height="24" fill="white"/>
</clipPath>
</defs>
</svg>
